<?xml version="1.0" encoding="UTF-8"?>
<svg id="Layer_1" xmlns="http://www.w3.org/2000/svg" version="1.1" viewBox="0 0 50 50">
  <!-- Generator: Adobe Illustrator 29.7.1, SVG Export Plug-In . SVG Version: 2.1.1 Build 8)  -->
  <path d="M16.95317,22.08963c-1.26262-1.6809-2.01062-3.7703-2.01062-6.0345,0-5.5545,4.5029-10.0574,10.0574-10.0574s10.0575,4.5029,10.0575,10.0574c0,2.2642-.7481,4.3536-2.0107,6.0345,4.4432.0005,8.0452,3.6026,8.0452,8.046v12.069H8.90805v-12.069c0-4.4434,3.6019-8.0455,8.04512-8.046h0ZM24.99995,22.08963c3.3329,0,6.0345-2.7016,6.0345-6.0345s-2.7016-6.0344-6.0345-6.0344-6.0345,2.7016-6.0345,6.0344,2.70172,6.0345,6.0345,6.0345ZM37.06895,30.13563c0-2.2219-1.8011-4.023-4.023-4.023h-16.092c-2.2219,0-4.0229,1.8011-4.0229,4.023v8.046h24.1379v-8.046Z"/>
</svg>