<?xml version="1.0" encoding="UTF-8"?>
<svg id="Layer_1" xmlns="http://www.w3.org/2000/svg" version="1.1" viewBox="0 0 50 50">
  <!-- Generator: Adobe Illustrator 29.7.1, SVG Export Plug-In . SVG Version: 2.1.1 Build 8)  -->
  <path d="M12.93025,22.08973c-1.2626-1.681-2.0107-3.7704-2.0107-6.0345,0-5.5545,4.5029-10.0575,10.0575-10.0575s10.0575,4.503,10.0575,10.0575c0,2.2641-.7481,4.3535-2.0108,6.0345,4.4432.0004,8.0452,3.6026,8.0452,8.046v12.0689H4.88505v-12.0689c0-4.4434,3.602-8.0456,8.0452-8.046h0ZM20.97705,22.08973c3.3328,0,6.0345-2.7017,6.0345-6.0345s-2.7017-6.0345-6.0345-6.0345-6.0345,2.7017-6.0345,6.0345,2.7016,6.0345,6.0345,6.0345ZM33.04605,30.13573c0-2.2219-1.8012-4.023-4.023-4.023H12.93105c-2.2219,0-4.023,1.8011-4.023,4.023v8.0459h24.138v-8.0459Z"/>
  <polygon points="41.09195 10.02073 45.11495 10.02073 45.11495 14.04373 41.09195 14.04373 41.09195 18.06673 37.06895 18.06673 37.06895 14.04373 33.04605 14.04373 33.04605 10.02073 37.06895 10.02073 37.06895 5.99773 41.09195 5.99773 41.09195 10.02073"/>
</svg>